<?xml version="1.0" encoding="utf-8"?>
<!-- Svg Vector Icons : http://www.onlinewebfonts.com/icon -->
<!DOCTYPE svg PUBLIC "-//W3C//DTD SVG 1.1//EN" "http://www.w3.org/Graphics/SVG/1.1/DTD/svg11.dtd">
<svg version="1.1" xmlns="http://www.w3.org/2000/svg" xmlns:xlink="http://www.w3.org/1999/xlink" x="0px" y="0px" viewBox="0 0 1000 1000" enable-background="new 0 0 1000 1000" xml:space="preserve">
<metadata> Svg Vector Icons : http://www.onlinewebfonts.com/icon </metadata>
<style>.cls-1{fill:#ffffff;}</style>
<g><path class="cls-1" d="M500,10C229.4,10,10,229.4,10,500s219.4,490,490,490s490-219.4,490-490S770.6,10,500,10z M500,867.5c-203,0-367.5-164.6-367.5-367.5c0-203,164.5-367.5,367.5-367.5c202.9,0,367.5,164.5,367.5,367.5C867.5,702.9,702.9,867.5,500,867.5z M683.7,316.2c-16.8,0-32.2,6.9-43.3,17.9L438.8,535.8l-79.2-79.2c-11.1-11.1-26.5-17.9-43.3-17.9c-33.9,0-61.3,27.4-61.3,61.3c0,16.9,6.9,32.2,17.9,43.3l122.5,122.6c11.1,11,26.4,17.9,43.3,17.9s32.2-6.9,43.3-17.9l245-245c11.1-11.1,17.9-26.4,17.9-43.4C744.9,343.6,717.6,316.2,683.7,316.2z"/></g>
</svg>