<!--?xml version="1.0" encoding="iso-8859-1"?-->
<!-- Generator: Adobe Illustrator 24.0.2, SVG Export Plug-In . SVG Version: 6.00 Build 0)  -->
<svg version="1.1" id="_x34_" xmlns="http://www.w3.org/2000/svg" xmlns:xlink="http://www.w3.org/1999/xlink" x="0px" y="0px" viewBox="0 0 512 489.4" style="opacity: 1; width: 256px;" xml:space="preserve">
<style type="text/css">
	.st0{fill:#87C022;}
	.st1{opacity:0.2;fill:#FFFFFF;}
</style>
<g>
	<path class="st0" d="M510.8,185.1c-3.2-9.9-12.4-16.7-22.8-16.9l-157-3.5L279.1,16.4C275.7,6.6,266.4,0,256,0
		c-10.4,0-19.7,6.6-23.1,16.4L181,164.7l-157,3.5c-10.4,0.2-19.6,7-22.8,16.9c-3.2,9.9,0.2,20.8,8.5,27.1l125,95.1L89.5,457.8
		c-2.3,7.5-0.9,15.4,3.8,21.7c4.6,6.2,12,9.9,19.7,9.9c5,0,9.8-1.5,13.9-4.4L256,395.5L385.1,485c4.1,2.9,9,4.4,13.9,4.4
		c7.7,0,15.1-3.7,19.7-9.9c4.7-6.3,6-14.2,3.8-21.7l-45.2-150.4l125-95.1C510.6,205.9,514,195,510.8,185.1z" style="fill: rgb(0, 0, 191);"></path>
	<path class="st1" d="M259.8,23.2c-1.2-3.6-6.3-3.6-7.5,0l-55.6,159.1c-0.5,1.6-2,2.6-3.7,2.7l-168.5,3.8c-3.8,0.1-5.3,4.9-2.3,7.2
		L156.2,298c1.3,1,1.9,2.7,1.4,4.3l-33.8,112.4l189-239.9L259.8,23.2z" style="fill: rgb(255, 255, 255);"></path>
</g>
</svg>
